<svg id="Binance_Coin_BNB_" data-name="Binance Coin (BNB)" xmlns="http://www.w3.org/2000/svg" width="120" height="120" viewBox="0 0 120 120">
  <g id="Binance_Coin_BNB_2" data-name="Binance Coin (BNB)" transform="translate(0)">
    <path id="Binance_Coin_BNB_3" data-name="Binance Coin (BNB)" d="M118.191,74.514A59.979,59.979,0,1,1,74.5,1.8a59.984,59.984,0,0,1,43.692,72.719h0Z" fill="#f3ba2f"/>
    <path id="Binance_Coin_BNB_4" data-name="Binance Coin (BNB)" d="M15.424,55.424l-.013-.013,9.053-9.028h0L40,61.92,55.544,46.377l9.045,9.035,0,0L40,80ZM61.92,40l9.041-9.041L80,40l-9.04,9.041ZM0,40l9.041-9.041L18.08,40,9.04,49.038ZM40,18.08,24.464,33.617h0l-9.04-9.04L40,0,64.584,24.583l-9.04,9.04Z" transform="translate(20 20)" fill="#fff"/>
    <path id="Binance_Coin_BNB_5" data-name="Binance Coin (BNB)" d="M18.347,9.173h0L9.178,0,2.4,6.778h0l-.779.779L.013,9.164,0,9.176l.013.013,9.165,9.166,9.173-9.173,0-.005-.008,0" transform="translate(50.822 50.822)" fill="#fff"/>
  </g>
</svg>
