<svg xmlns="http://www.w3.org/2000/svg" width="173.006" height="32" viewBox="0 0 173.006 32">
  <g id="Bloomberg" transform="translate(5798.5 4924.5)">
    <path id="Path_16226" data-name="Path 16226" d="M563.933,111.868h6.25a2.5,2.5,0,0,0,2.613,1.576c2.093,0,2.814-1.3,2.814-3.221v-1.369h-.139a5.555,5.555,0,0,1-4.428,2.087c-3.985,0-7.449-2.945-7.449-8.7,0-5.275,2.848-9.388,7.144-9.388a5.407,5.407,0,0,1,4.983,2.572h.1V93.4h6.181v15.962a8.67,8.67,0,0,1-2.578,6.616A9.607,9.607,0,0,1,572.9,118C567.986,118,564.557,115.974,563.933,111.868Zm11.954-9.941c0-2.295-1.095-4.147-2.987-4.147-1.823,0-2.987,1.645-2.987,4.147,0,2.468,1.171,4.245,2.987,4.245C574.785,106.178,575.887,104.36,575.887,101.927Zm-19.2-5.378h.1c1.338-2.572,3.091-3.526,5.322-3.526a2.512,2.512,0,0,1,1.068.173v5.654h-.139c-3.811-.684-6.042,1.134-6.042,5.275v7.708H550.51V93.4h6.181ZM409,86h12.709a8.608,8.608,0,0,1,5.565,1.645,6.339,6.339,0,0,1,2.266,5.1,4.938,4.938,0,0,1-3.056,4.97v.1a6.227,6.227,0,0,1,4.227,6.2,7.48,7.48,0,0,1-2.814,6.235,9.826,9.826,0,0,1-5.939,1.576H409Zm12.092,20.109a2.641,2.641,0,1,0-.034-5.281h-5.017V106.1h5.051Zm-.658-10a2.231,2.231,0,1,0-.034-4.452h-4.359v4.452Z" transform="translate(-6207.5 -5010.5)" fill="#fff"/>
    <path id="Path_16227" data-name="Path 16227" d="M437.561,86h6.659v25.834h-6.659Zm7.934,16.646c0-5.821,3.777-9.761,9.618-9.761s9.549,3.94,9.549,9.761c0,5.862-3.707,9.761-9.549,9.761S445.495,108.508,445.495,102.646Zm12.57,0c0-3.221-1.032-5.24-3.021-5.24s-2.952,2.019-2.952,5.24c0,3.256.964,5.274,2.952,5.274S458.065,105.9,458.065,102.646Zm7.352,0c0-5.821,3.776-9.761,9.618-9.761s9.549,3.94,9.549,9.761c0,5.862-3.707,9.761-9.549,9.761S465.418,108.508,465.418,102.646Zm12.57,0c0-3.221-1.032-5.24-3.021-5.24s-2.952,2.019-2.952,5.24c0,3.256.964,5.274,2.952,5.274S477.988,105.9,477.988,102.646Zm7.865-9.243h6.181v2.772h.1a5.918,5.918,0,0,1,5.564-3.325,5.161,5.161,0,0,1,4.983,3.187h.1a6.208,6.208,0,0,1,5.738-3.187c4.3,0,6.146,3.152,6.146,7.4v11.579H508.18v-10.41c0-1.888-.582-3.118-2.231-3.118-1.615,0-2.439,1.507-2.439,3.5v10.038h-6.5V101.416c0-1.888-.582-3.118-2.231-3.118-1.615,0-2.439,1.507-2.439,3.5v10.038h-6.487ZM522.6,109.435h-.069v2.4h-6.182V86h6.493v9.319h.1a6.137,6.137,0,0,1,5.252-2.468c4.636,0,7.318,4.182,7.318,9.727,0,6.27-2.918,9.864-7.727,9.864A5.828,5.828,0,0,1,522.6,109.435Zm6.32-6.92c0-2.979-1.095-4.9-3.056-4.9-1.989,0-3.264,1.922-3.264,4.9,0,2.945,1.269,4.9,3.264,4.9S528.921,105.494,528.921,102.515Zm7.421.069c0-5.758,3.812-9.761,9.341-9.761a9.008,9.008,0,0,1,6.493,2.4c2.128,2.053,3.091,5.275,3.022,9.077H542.8c.277,2.295,1.372,3.463,3.333,3.463a2.49,2.49,0,0,0,2.543-1.749h6.25c-1.095,4.21-4.359,6.339-8.994,6.339C540.188,112.345,536.342,108.474,536.342,102.584Zm6.459-1.921h5.9c-.1-2.226-1.338-3.394-2.883-3.394C544.034,97.268,543.036,98.54,542.8,100.662Z" transform="translate(-6213.186 -5010.5)" fill="#fff"/>
  </g>
</svg>
