<svg id="Coindesk" xmlns="http://www.w3.org/2000/svg" width="163.696" height="32" viewBox="0 0 163.696 32">
  <path id="Path_398" data-name="Path 398" d="M73.1,317.854a1.554,1.554,0,1,0,1.554-1.554,1.571,1.571,0,0,0-1.554,1.554m13.03-1.527a1.554,1.554,0,1,0,1.554,1.554,1.536,1.536,0,0,0-1.554-1.554m0,11.667a1.554,1.554,0,1,0,1.554,1.554,1.536,1.536,0,0,0-1.554-1.554" transform="translate(-58.707 -301.852)" fill="#fff"/>
  <path id="Path_399" data-name="Path 399" d="M51.022,265.081a4.106,4.106,0,0,0-5.97-.491l-.191.191-.382.3a4.005,4.005,0,0,1-5.316-.3v-.109a4.258,4.258,0,0,0-1.826-1.063c-.109,0-.3-.109-.382-.109H35.4a.348.348,0,0,0-.3.109h-.191c-.109,0-.191.109-.3.109a.107.107,0,0,0-.109.109c-.109,0-.191.109-.3.109a.107.107,0,0,0-.109.109c-.109.109-.191.109-.3.191a.107.107,0,0,0-.109.109c-.109.109-.191.109-.3.191l-.109.109-.191.191-.382.3a3.857,3.857,0,0,1-5.207-.3.107.107,0,0,1-.109-.109l-.191-.191a3.763,3.763,0,0,0-2.017-.954H23.435c0,.109-.109.109-.191.191h-.027a3.978,3.978,0,0,0-1.363.763l-.109.109-.3.3a4.427,4.427,0,0,0-.763,1.254c0,.109-.109.191-.109.3s-.109.191-.109.382a4.208,4.208,0,0,0,.109,2.017c0,.109.109.191.109.3v.109c0,.109.109.191.109.3.109.109.109.191.191.382a4.462,4.462,0,0,1,.491.382l.191.191.191.191a3.936,3.936,0,0,1-.109,5.507,3.169,3.169,0,0,0-.572.682c-.109.109-.109.191-.191.382v.109c-.109.109-.109.191-.191.3v.109c0,.109-.109.191-.109.3v.109a.348.348,0,0,1-.109.3v1.445a.348.348,0,0,0,.109.3v.109a4.457,4.457,0,0,0,1.145,1.935,3.932,3.932,0,0,1,0,5.588l-.109.109-.191.191v.109c-.109.109-.191.191-.191.3a.107.107,0,0,1-.109.109c-.109.109-.109.191-.191.3l-.109.109c0,.109-.109.109-.109.191s-.109.109-.109.191c0,.109,0,.109-.109.191a3.019,3.019,0,0,0-.3,1.254v.763c.109.3.109.572.3.763a.279.279,0,0,0,.109.191.107.107,0,0,0,.109.109c0,.109.109.191.109.3a.107.107,0,0,0,.109.109,1.158,1.158,0,0,0,.3.382,568.75,568.75,0,0,0,.218.218.107.107,0,0,0,.109.109l.109.109c.109.109.191.109.191.191l.109.109a.107.107,0,0,1,.109.109c.109.109.191.191.3.191a.107.107,0,0,1,.109.109c.109.109.191.109.3.191h.055c.109.109.191.109.382.109.109,0,.3.109.382.109h.109a.348.348,0,0,1,.3.109h.872c.3,0,.491-.109.763-.109h.109c.109,0,.191-.109.3-.109h.055c.109,0,.191-.109.3-.109h.109c.191-.109.491-.3.682-.382l.3-.3.109-.109a3.8,3.8,0,0,1,5.588,0,4.118,4.118,0,0,0,6.27-.3,4.252,4.252,0,0,0,0-5.125,4.106,4.106,0,0,0-5.97-.491l-.191.191-.382.3a4.005,4.005,0,0,1-5.316-.3l-.191-.191-.3-.382a4.005,4.005,0,0,1,.3-5.316,3.768,3.768,0,0,0,1.254-2.89v-.3a3.515,3.515,0,0,0-1.145-2.617c0-.109-.109-.109-.109-.191l-.3-.382a4.005,4.005,0,0,1,.3-5.316l.109-.109.109-.109a3.8,3.8,0,0,1,5.588,0l.109.109.109.109.191.191c.109,0,.109.109.191.109s.109.109.191.109.109.109.191.109.109.109.191.109.109.109.191.109.109.109.191.109.109,0,.191.109c.109,0,.109,0,.191.109H36.9a.348.348,0,0,0,.3-.109h.191c.109,0,.191-.109.3-.109H37.8c.109,0,.191-.109.382-.191a5.022,5.022,0,0,0,1.063-.763l.109-.109a3.8,3.8,0,0,1,5.588,0,3.973,3.973,0,0,0,6.188-.191,4.757,4.757,0,0,0-.109-5.343" transform="translate(-20.3 -263.445)" fill="#fff"/>
  <path id="Path_400" data-name="Path 400" d="M182.422,276.9a5.449,5.449,0,0,0-1.745-1.254,4.456,4.456,0,0,0-2.126-.491,4.792,4.792,0,0,0-2.126.491,3.748,3.748,0,0,0-1.445,1.254,5,5,0,0,0-.872,1.745,7.537,7.537,0,0,0-.3,2.017,5.294,5.294,0,0,0,.382,2.017,4.626,4.626,0,0,0,.954,1.636,4.128,4.128,0,0,0,1.554,1.145,4.308,4.308,0,0,0,2.017.382,4.456,4.456,0,0,0,2.126-.491,5.364,5.364,0,0,0,1.636-1.254l2.017,2.126a6.535,6.535,0,0,1-2.617,1.826,8.519,8.519,0,0,1-3.189.572,9.062,9.062,0,0,1-3.271-.572,7.267,7.267,0,0,1-4.144-4.143,9.633,9.633,0,0,1,0-6.542,9.374,9.374,0,0,1,1.636-2.617,7.543,7.543,0,0,1,2.508-1.636,9.062,9.062,0,0,1,3.271-.572,8.724,8.724,0,0,1,3.189.572,7.4,7.4,0,0,1,2.7,1.826l-2.154,1.963m6.542,3.571a5.2,5.2,0,0,0,.382,2.126,5.135,5.135,0,0,0,.954,1.745,3.258,3.258,0,0,0,1.554,1.063,4.782,4.782,0,0,0,2.126.382,5.554,5.554,0,0,0,2.126-.382,7.414,7.414,0,0,0,1.554-1.063,5.135,5.135,0,0,0,.954-1.745,7.726,7.726,0,0,0,.382-2.126,5.2,5.2,0,0,0-.382-2.126,5.134,5.134,0,0,0-.954-1.745,3.258,3.258,0,0,0-1.554-1.063,4.782,4.782,0,0,0-2.126-.382,5.554,5.554,0,0,0-2.126.382A7.413,7.413,0,0,0,190.3,276.6a5.134,5.134,0,0,0-.954,1.745A7.727,7.727,0,0,0,188.964,280.474Zm-3.08,0a8.724,8.724,0,0,1,.572-3.189,7.728,7.728,0,0,1,1.745-2.617,6.9,6.9,0,0,1,2.617-1.745,8.537,8.537,0,0,1,3.189-.682,6.917,6.917,0,0,1,3.189.682,7.729,7.729,0,0,1,2.617,1.745,9.546,9.546,0,0,1,1.745,2.617,8.519,8.519,0,0,1,.572,3.189,8.724,8.724,0,0,1-.572,3.189,7.729,7.729,0,0,1-1.745,2.617,8.537,8.537,0,0,1-5.806,2.426,6.993,6.993,0,0,1-3.189-.682,7.729,7.729,0,0,1-2.617-1.745,8.457,8.457,0,0,1-1.745-2.617A11.824,11.824,0,0,1,185.884,280.474ZM205.1,288.3h2.89V272.868H205.1Zm-.681-21.045a2.437,2.437,0,0,1,.572-1.554,2.074,2.074,0,0,1,1.445-.681,1.718,1.718,0,0,1,1.445.681,2.187,2.187,0,0,1,.572,1.554,2.383,2.383,0,0,1-.572,1.554,2.074,2.074,0,0,1-1.445.681,1.718,1.718,0,0,1-1.445-.681A2.282,2.282,0,0,1,204.421,267.253Zm7.606,5.588h2.917v2.4h.109a3.77,3.77,0,0,1,1.935-2.017,6.419,6.419,0,0,1,3.189-.763,5.554,5.554,0,0,1,2.126.382,3.982,3.982,0,0,1,1.745,1.063,6.726,6.726,0,0,1,1.254,1.826,7.228,7.228,0,0,1,.491,2.7v9.95h-2.944V279.22a5.12,5.12,0,0,0-.3-1.826,4.266,4.266,0,0,0-.763-1.254,2.435,2.435,0,0,0-1.145-.681,5.138,5.138,0,0,0-1.363-.191,4.588,4.588,0,0,0-1.636.3,3.46,3.46,0,0,0-1.363.954,3.742,3.742,0,0,0-.872,1.636,8.53,8.53,0,0,0-.3,2.317v8.014h-2.89v-15.62m24.234,13a4.836,4.836,0,0,0,3.762-1.527,5.135,5.135,0,0,0,.954-1.745,7.779,7.779,0,0,0,.382-2.208,5.879,5.879,0,0,0-.382-2.208,5.134,5.134,0,0,0-.954-1.745,4.665,4.665,0,0,0-1.636-1.145,5.083,5.083,0,0,0-2.126-.382,4.836,4.836,0,0,0-3.762,1.527,5.134,5.134,0,0,0-.954,1.745,7.779,7.779,0,0,0-.382,2.208,5.88,5.88,0,0,0,.382,2.208,5.134,5.134,0,0,0,.954,1.745,3.848,3.848,0,0,0,1.636,1.145A7.045,7.045,0,0,0,236.451,285.871Zm8.014,2.317h-2.89V285.98h-.109a5.752,5.752,0,0,1-2.317,1.935,6.7,6.7,0,0,1-3.08.682,9.062,9.062,0,0,1-3.271-.572,6.424,6.424,0,0,1-2.508-1.745,7.107,7.107,0,0,1-1.554-2.617,8.519,8.519,0,0,1-.572-3.189,9.387,9.387,0,0,1,.572-3.271,9.108,9.108,0,0,1,1.554-2.617,6.722,6.722,0,0,1,2.508-1.745,8.654,8.654,0,0,1,3.271-.572,6.7,6.7,0,0,1,3.08.681,5.329,5.329,0,0,1,2.208,1.936h.109V263.3h2.89v24.888Zm14.748-8.969a5.577,5.577,0,0,0-.3-1.826,3.67,3.67,0,0,0-.872-1.445,6.1,6.1,0,0,0-1.363-.954,5.672,5.672,0,0,0-1.935-.382,4.548,4.548,0,0,0-1.935.382,5.838,5.838,0,0,0-1.554,1.063,3.828,3.828,0,0,0-.954,1.445,5.16,5.16,0,0,0-.382,1.554h9.268Zm-9.241,2.4a3.81,3.81,0,0,0,.491,1.826,4.637,4.637,0,0,0,1.145,1.445,5.575,5.575,0,0,0,1.636.872,6.815,6.815,0,0,0,1.936.3,4,4,0,0,0,2.4-.681,6.814,6.814,0,0,0,1.826-1.636l2.208,1.745a8.189,8.189,0,0,1-6.842,3.189,8.654,8.654,0,0,1-3.271-.572,6.424,6.424,0,0,1-2.508-1.745,6.5,6.5,0,0,1-1.554-2.617,8.519,8.519,0,0,1-.572-3.189,8.725,8.725,0,0,1,.572-3.189,9.374,9.374,0,0,1,1.636-2.617A8.269,8.269,0,0,1,251.58,273a8.52,8.52,0,0,1,3.189-.572,7.48,7.48,0,0,1,3.462.681,6.521,6.521,0,0,1,2.317,1.826,8.534,8.534,0,0,1,1.363,2.617,9.841,9.841,0,0,1,.382,3v1.063Zm23.716-4.907a6.8,6.8,0,0,0-1.254-1.063,3.573,3.573,0,0,0-1.826-.491,3.81,3.81,0,0,0-1.826.491,1.386,1.386,0,0,0-.763,1.254,1.214,1.214,0,0,0,.491,1.063,3.936,3.936,0,0,0,1.063.681,5.51,5.51,0,0,0,1.254.382,6.137,6.137,0,0,0,1.145.191,10.907,10.907,0,0,1,1.745.572,3.671,3.671,0,0,1,1.445.872,5.444,5.444,0,0,1,.954,1.254,4.79,4.79,0,0,1,.382,1.826,3.969,3.969,0,0,1-.572,2.208,6.023,6.023,0,0,1-1.445,1.554,5.882,5.882,0,0,1-2.017.872,9.5,9.5,0,0,1-2.208.3,9.349,9.349,0,0,1-3.38-.572,6.088,6.088,0,0,1-2.617-2.126l2.208-1.826a8.693,8.693,0,0,0,1.554,1.254,3.75,3.75,0,0,0,2.126.572,4.082,4.082,0,0,0,1.145-.109,3.037,3.037,0,0,0,.954-.382,3.76,3.76,0,0,0,.681-.572,1.6,1.6,0,0,0,.3-.872,1.55,1.55,0,0,0-.382-1.063,3.391,3.391,0,0,0-.954-.681,4.711,4.711,0,0,0-1.145-.382l-1.145-.3c-.572-.191-1.254-.3-1.745-.491a5.523,5.523,0,0,1-1.445-.763,4.875,4.875,0,0,1-1.063-1.254,3.543,3.543,0,0,1-.382-1.826,4.792,4.792,0,0,1,.491-2.126,3.83,3.83,0,0,1,1.363-1.445,6.272,6.272,0,0,1,1.826-.872,8.169,8.169,0,0,1,2.126-.3,8.034,8.034,0,0,1,3,.572,5.007,5.007,0,0,1,2.317,1.935l-2.4,1.663m5.616-13.03h2.89V279.3l6.57-6.57h3.953l-7.033,6.951,7.715,8.287h-4.143l-7.033-7.905v7.905h-2.89V263.682" transform="translate(-129.701 -263.3)" fill="#fff"/>
</svg>
