<svg xmlns="http://www.w3.org/2000/svg" xmlns:xlink="http://www.w3.org/1999/xlink" width="92" height="92" viewBox="0 0 92 92"><defs><linearGradient id="a" x1="0.5" x2="0.5" y2="1" gradientUnits="objectBoundingBox"><stop offset="0" stop-color="#6366f1"/><stop offset="1" stop-color="#323379"/></linearGradient></defs><g transform="translate(-252 -1054)"><circle cx="46" cy="46" r="46" transform="translate(252 1054)" fill="url(#a)"/><path d="M346.77,297.77a17.242,17.242,0,1,1,34.3-2.633,17.019,17.019,0,0,1-1.114,6.073,5.793,5.793,0,0,0-.257.739,1.935,1.935,0,0,0-.051.413,4.809,4.809,0,0,0,.06.675l.863,7.007a2.942,2.942,0,0,1,.013,1.412,1.066,1.066,0,0,1-.551.54,2.959,2.959,0,0,1-1.412-.047l-6.825-1a4.885,4.885,0,0,0-.7-.077,1.917,1.917,0,0,0-.428.045,6.393,6.393,0,0,0-.767.261,17.306,17.306,0,0,1-6.084,1.1,17.505,17.505,0,0,1-2.635-.2m-11.12,8.768a11.785,11.785,0,1,0-11.5-11.782,11.988,11.988,0,0,0,.593,3.742,8.072,8.072,0,0,1,.27.915,1.807,1.807,0,0,1,.021.456,5.412,5.412,0,0,1-.139.752L338,320.842l6.416-.876a5.553,5.553,0,0,1,.677-.071,1.96,1.96,0,0,1,.4.041,7.875,7.875,0,0,1,.818.266A11.22,11.22,0,0,0,350.064,320.842Z" transform="translate(-61.534 800.579)" fill="none" stroke="#fff" stroke-linecap="round" stroke-linejoin="round" stroke-width="3"/></g></svg>