<svg xmlns="http://www.w3.org/2000/svg" xmlns:xlink="http://www.w3.org/1999/xlink" width="219.763" height="42" viewBox="0 0 219.763 42">
  <defs>
    <linearGradient id="linear-gradient" x1="-0.012" y1="0.379" x2="1.036" y2="0.5" gradientUnits="objectBoundingBox">
      <stop offset="0" stop-color="#6366f1"/>
      <stop offset="1" stop-color="#e0e7ff"/>
    </linearGradient>
  </defs>
  <path id="Path_17902" data-name="Path 17902" d="M-180.916-58.3a18.515,18.515,0,0,1,9.51,2.188A13.15,13.15,0,0,1-166-50.267a19.141,19.141,0,0,1,1.7,8.174,18.713,18.713,0,0,1-1.75,8.174,13.4,13.4,0,0,1-5.48,5.849,18.339,18.339,0,0,1-9.395,2.188h-12.112V-58.3Zm.691,26.895a9.193,9.193,0,0,0,5.319-1.5,9.193,9.193,0,0,0,3.27-3.937,12.805,12.805,0,0,0,1.082-5.25,12.805,12.805,0,0,0-1.082-5.25,9.193,9.193,0,0,0-3.27-3.937,9.193,9.193,0,0,0-5.319-1.5h-6.539v21.368Zm41.724-6.954a14.247,14.247,0,0,1-.138,1.8h-17.684a6.7,6.7,0,0,0,2.026,4.329,6.342,6.342,0,0,0,4.467,1.566,4.8,4.8,0,0,0,4.928-3.684h5.987a11.353,11.353,0,0,1-3.569,6.424,10.772,10.772,0,0,1-7.391,2.418,12.846,12.846,0,0,1-6.586-1.612,10.539,10.539,0,0,1-4.191-4.444,14.181,14.181,0,0,1-1.428-6.47,14.123,14.123,0,0,1,1.474-6.609,10.437,10.437,0,0,1,4.214-4.375,12.879,12.879,0,0,1,6.424-1.543,12.616,12.616,0,0,1,5.6,1.266,10.008,10.008,0,0,1,4.237,4.007A13.35,13.35,0,0,1-138.5-38.362Zm-5.895-2.257a5.843,5.843,0,0,0-1.566-3.73,5.071,5.071,0,0,0-3.822-1.428q-5.25,0-6.309,5.158Zm17.546,8.2a9.335,9.335,0,0,1,.322,2.671q0,.691.553.691t.553-.691a9.335,9.335,0,0,1,.322-2.671l5.388-17.776h6.263l-8.289,24.316h-8.474L-138.5-50.2h6.263Zm36.98-5.941a14.246,14.246,0,0,1-.138,1.8h-17.684a6.7,6.7,0,0,0,2.026,4.329,6.342,6.342,0,0,0,4.467,1.566,4.8,4.8,0,0,0,4.928-3.684h5.987a11.352,11.352,0,0,1-3.569,6.424,10.772,10.772,0,0,1-7.391,2.418,12.846,12.846,0,0,1-6.586-1.612,10.54,10.54,0,0,1-4.191-4.444,14.181,14.181,0,0,1-1.428-6.47,14.123,14.123,0,0,1,1.474-6.609,10.437,10.437,0,0,1,4.214-4.375,12.879,12.879,0,0,1,6.424-1.543,12.616,12.616,0,0,1,5.6,1.266A10.008,10.008,0,0,1-91.5-45.293,13.35,13.35,0,0,1-89.87-38.362Zm-5.895-2.257a5.843,5.843,0,0,0-1.566-3.73,5.071,5.071,0,0,0-3.822-1.428q-5.25,0-6.309,5.158ZM-81.028-59.04v33.158h-5.895V-59.04Zm15.105,8.474a12.29,12.29,0,0,1,6.447,1.658A11.108,11.108,0,0,1-55.239-44.4a13.649,13.649,0,0,1,1.474,6.355,13.649,13.649,0,0,1-1.474,6.355,11.108,11.108,0,0,1-4.237,4.513,12.29,12.29,0,0,1-6.447,1.658,12.29,12.29,0,0,1-6.447-1.658,11.108,11.108,0,0,1-4.237-4.513,13.649,13.649,0,0,1-1.474-6.355A13.649,13.649,0,0,1-76.607-44.4a11.108,11.108,0,0,1,4.237-4.513A12.29,12.29,0,0,1-65.923-50.566Zm0,19.711a5.61,5.61,0,0,0,4.582-2.049A7.83,7.83,0,0,0-59.66-38.04a7.83,7.83,0,0,0-1.681-5.135,5.61,5.61,0,0,0-4.582-2.049A5.61,5.61,0,0,0-70.5-43.175a7.83,7.83,0,0,0-1.681,5.135A7.83,7.83,0,0,0-70.5-32.905,5.611,5.611,0,0,0-65.923-30.856ZM-51.37-38.04a13.676,13.676,0,0,1,1.5-6.447,10.873,10.873,0,0,1,4.306-4.467,12.815,12.815,0,0,1,6.493-1.612,11.982,11.982,0,0,1,5.757,1.336,10.311,10.311,0,0,1,3.891,3.523,10.357,10.357,0,0,1,1.635,4.72h-5.8a4.766,4.766,0,0,0-1.7-3.039,5.683,5.683,0,0,0-3.776-1.2,5.869,5.869,0,0,0-4.7,1.98,7.7,7.7,0,0,0-1.7,5.2,7.7,7.7,0,0,0,1.7,5.2,5.869,5.869,0,0,0,4.7,1.98,5.683,5.683,0,0,0,3.776-1.2,4.766,4.766,0,0,0,1.7-3.039h5.8a10.357,10.357,0,0,1-1.635,4.72,10.356,10.356,0,0,1-3.868,3.523,11.948,11.948,0,0,1-5.78,1.336A12.6,12.6,0,0,1-45.5-27.126a11.224,11.224,0,0,1-4.329-4.467A13.343,13.343,0,0,1-51.37-38.04Zm26.526-21h5.895v5.895h-5.895Zm0,8.842h5.895v24.316h-5.895ZM-6.423-45.04v11.1a11.718,11.718,0,0,0,.115,2.026.879.879,0,0,0,.6.714,6.737,6.737,0,0,0,1.819.161h4.1v5.158H-5.133a10.579,10.579,0,0,1-4.1-.668,4.436,4.436,0,0,1-2.326-2.28,10.825,10.825,0,0,1-.76-4.513v-11.7h-4.421V-50.2h4.421v-6.632h5.895V-50.2H.209v5.158Zm19.8,10.546a8.851,8.851,0,0,1,.368,2.763q0,.783.553.783t.553-.783a8.7,8.7,0,0,1,.414-2.763l5.2-15.7h6.263L16.419-23.073a9.98,9.98,0,0,1-3.132,4.651A8.4,8.4,0,0,1,8.222-17.04H3.8V-22.2H5.827q2.026,0,2.832-.092A2.3,2.3,0,0,0,9.9-22.751a2.964,2.964,0,0,0,.76-1.336l.507-1.474L1.683-50.2H7.946Z" transform="translate(193.028 59.04)" fill="url(#linear-gradient)"/>
</svg>
