<svg xmlns="http://www.w3.org/2000/svg" width="704.274" height="32" viewBox="0 0 704.274 32">
  <g id="Featured_In" data-name="Featured In" transform="translate(5710.497 4923)" opacity="0.2">
    <g id="Yahoo_Finance" data-name="Yahoo Finance" transform="translate(-5091.223 -4923)">
      <g id="Finance" transform="translate(31.054 20.911)">
        <path id="path32" d="M-160.8,27.572a.937.937,0,0,1,1.053-1,1.685,1.685,0,0,1,.772.176V24.536a2.873,2.873,0,0,0-1.236-.249,2.929,2.929,0,0,0-3.146,3.227V27.7h-.941v2.156h.941v5.178h2.556V29.861h1.727V27.7H-160.8Z" transform="translate(164.293 -24.155)" fill="#fff"/>
        <path id="path34" d="M-142.6,34.76V27.425h-2.57V34.76Zm.154-9.4a1.471,1.471,0,0,0-1.446-1.482,1.468,1.468,0,0,0-1.432,1.482,1.468,1.468,0,0,0,1.432,1.482A1.471,1.471,0,0,0-142.442,25.357Z" transform="translate(151.416 -23.876)" fill="#fff"/>
        <path id="path36" d="M-131.006,37.924c0-.763.365-1.188.927-1.188s.9.411.9,1.159v3.931h2.57V37.161c0-1.775-.927-2.875-2.444-2.875a2.12,2.12,0,0,0-1.952,1.1v-.895h-2.57v7.334h2.57Z" transform="translate(143.444 -30.941)" fill="#fff"/>
        <path id="path38" d="M-106.177,34.468a3.671,3.671,0,0,0-3.487,3.843,3.619,3.619,0,0,0,3.457,3.843,2.346,2.346,0,0,0,2.022-.895v.7h2.476V34.645h-2.476v.66A2.534,2.534,0,0,0-106.177,34.468Zm.527,2.362a1.449,1.449,0,0,1,1.494,1.481,1.466,1.466,0,0,1-1.494,1.511,1.508,1.508,0,0,1-1.494-1.481A1.443,1.443,0,0,1-105.65,36.83Z" transform="translate(127.214 -31.065)" fill="#fff"/>
        <path id="path40" d="M-78.549,37.924c0-.763.365-1.188.927-1.188s.9.411.9,1.159v3.931h2.57V37.161c0-1.775-.927-2.875-2.444-2.875a2.12,2.12,0,0,0-1.952,1.1v-.895h-2.57v7.334h2.57Z" transform="translate(107.839 -30.941)" fill="#fff"/>
        <path id="path42" d="M-57.076,38.158a3.643,3.643,0,0,0,3.75,3.872,3.569,3.569,0,0,0,1.685-.411V39.185a2.084,2.084,0,0,1-1.278.44,1.45,1.45,0,0,1-1.559-1.467,1.45,1.45,0,0,1,1.559-1.467,2.21,2.21,0,0,1,1.278.411V34.667a3.758,3.758,0,0,0-1.643-.381,3.7,3.7,0,0,0-3.792,3.872Z" transform="translate(91.521 -30.942)" fill="#fff"/>
        <path id="path44" d="M-33.26,39.244a1.2,1.2,0,0,1-1.166.645,1.219,1.219,0,0,1-1.292-1.056h4.859a5,5,0,0,0,.028-.543c0-2.42-1.475-4-3.665-4a3.723,3.723,0,0,0-3.736,3.872,3.669,3.669,0,0,0,3.82,3.872,3.436,3.436,0,0,0,3.356-1.98ZM-35.7,37.293a1.118,1.118,0,0,1,1.194-.953,1.1,1.1,0,0,1,1.194.953Z" transform="translate(78.73 -30.941)" fill="#fff"/>
      </g>
      <g id="Yahoo">
        <path id="path1139" d="M-260.955-23.352h5.057l2.945,7.533,2.983-7.533h4.924l-7.414,17.834h-4.955l2.029-4.726Z" transform="translate(260.955 29.09)" fill="#fff"/>
        <path id="path1141" d="M-208.573-24.285c-3.8,0-6.2,3.408-6.2,6.8,0,3.819,2.633,6.846,6.129,6.846a4.156,4.156,0,0,0,3.591-1.589v1.238h4.411v-13h-4.411V-22.8a4.433,4.433,0,0,0-3.519-1.481Zm.938,4.176a2.592,2.592,0,0,1,2.658,2.639,2.6,2.6,0,0,1-2.658,2.671,2.668,2.668,0,0,1-2.664-2.613A2.574,2.574,0,0,1-207.635-20.109Z" transform="translate(229.611 29.724)" fill="#fff"/>
        <path id="path1145" d="M-166.06-22.479V-41.214h4.613v6.965a4.271,4.271,0,0,1,3.391-1.525c2.807,0,4.452,2.092,4.452,5.08v8.214h-4.579v-7.089c0-1.011-.482-1.989-1.573-1.989a1.8,1.8,0,0,0-1.69,1.989v7.089Z" transform="translate(196.546 41.214)" fill="#fff"/>
        <path id="path1147" d="M-117.472-24.28a6.723,6.723,0,0,0-6.942,6.854,6.714,6.714,0,0,0,6.959,6.792,6.681,6.681,0,0,0,6.945-6.724,6.7,6.7,0,0,0-6.962-6.921Zm.042,4.213a2.618,2.618,0,0,1,2.6,2.645,2.659,2.659,0,0,1-2.6,2.6,2.575,2.575,0,0,1-2.582-2.613,2.508,2.508,0,0,1,2.582-2.633Z" transform="translate(168.279 29.72)" fill="#fff"/>
        <path id="path1153" d="M-71.88-24.28a6.723,6.723,0,0,0-6.942,6.854,6.714,6.714,0,0,0,6.959,6.792,6.681,6.681,0,0,0,6.945-6.724A6.7,6.7,0,0,0-71.88-24.28Zm.042,4.213a2.618,2.618,0,0,1,2.6,2.645,2.659,2.659,0,0,1-2.6,2.6,2.575,2.575,0,0,1-2.582-2.613,2.508,2.508,0,0,1,2.582-2.633Z" transform="translate(137.334 29.72)" fill="#fff"/>
        <ellipse id="path1155" cx="3.063" cy="3.063" rx="3.063" ry="3.063" transform="translate(72.993 12.883)" fill="#fff"/>
        <path id="path1157" d="M-23.195-29.456H-28.71l4.895-11.758h5.494Z" transform="translate(103.321 41.214)" fill="#fff"/>
      </g>
    </g>
    <g id="Coindesk" transform="translate(-5296.919 -4923)">
      <path id="Path_398" data-name="Path 398" d="M73.1,317.854a1.554,1.554,0,1,0,1.554-1.554,1.571,1.571,0,0,0-1.554,1.554m13.03-1.527a1.554,1.554,0,1,0,1.554,1.554,1.536,1.536,0,0,0-1.554-1.554m0,11.667a1.554,1.554,0,1,0,1.554,1.554,1.536,1.536,0,0,0-1.554-1.554" transform="translate(-58.707 -301.852)" fill="#fff"/>
      <path id="Path_399" data-name="Path 399" d="M51.022,265.081a4.106,4.106,0,0,0-5.97-.491l-.191.191-.382.3a4.005,4.005,0,0,1-5.316-.3v-.109a4.258,4.258,0,0,0-1.826-1.063c-.109,0-.3-.109-.382-.109H35.4a.348.348,0,0,0-.3.109h-.191c-.109,0-.191.109-.3.109a.107.107,0,0,0-.109.109c-.109,0-.191.109-.3.109a.107.107,0,0,0-.109.109c-.109.109-.191.109-.3.191a.107.107,0,0,0-.109.109c-.109.109-.191.109-.3.191l-.109.109-.191.191-.382.3a3.857,3.857,0,0,1-5.207-.3.107.107,0,0,1-.109-.109l-.191-.191a3.763,3.763,0,0,0-2.017-.954H23.435c0,.109-.109.109-.191.191h-.027a3.978,3.978,0,0,0-1.363.763l-.109.109-.3.3a4.427,4.427,0,0,0-.763,1.254c0,.109-.109.191-.109.3s-.109.191-.109.382a4.208,4.208,0,0,0,.109,2.017c0,.109.109.191.109.3v.109c0,.109.109.191.109.3.109.109.109.191.191.382a4.462,4.462,0,0,1,.491.382l.191.191.191.191a3.936,3.936,0,0,1-.109,5.507,3.169,3.169,0,0,0-.572.682c-.109.109-.109.191-.191.382v.109c-.109.109-.109.191-.191.3v.109c0,.109-.109.191-.109.3v.109a.348.348,0,0,1-.109.3v1.445a.348.348,0,0,0,.109.3v.109a4.457,4.457,0,0,0,1.145,1.935,3.932,3.932,0,0,1,0,5.588l-.109.109-.191.191v.109c-.109.109-.191.191-.191.3a.107.107,0,0,1-.109.109c-.109.109-.109.191-.191.3l-.109.109c0,.109-.109.109-.109.191s-.109.109-.109.191c0,.109,0,.109-.109.191a3.019,3.019,0,0,0-.3,1.254v.763c.109.3.109.572.3.763a.279.279,0,0,0,.109.191.107.107,0,0,0,.109.109c0,.109.109.191.109.3a.107.107,0,0,0,.109.109,1.158,1.158,0,0,0,.3.382,568.75,568.75,0,0,0,.218.218.107.107,0,0,0,.109.109l.109.109c.109.109.191.109.191.191l.109.109a.107.107,0,0,1,.109.109c.109.109.191.191.3.191a.107.107,0,0,1,.109.109c.109.109.191.109.3.191h.055c.109.109.191.109.382.109.109,0,.3.109.382.109h.109a.348.348,0,0,1,.3.109h.872c.3,0,.491-.109.763-.109h.109c.109,0,.191-.109.3-.109h.055c.109,0,.191-.109.3-.109h.109c.191-.109.491-.3.682-.382l.3-.3.109-.109a3.8,3.8,0,0,1,5.588,0,4.118,4.118,0,0,0,6.27-.3,4.252,4.252,0,0,0,0-5.125,4.106,4.106,0,0,0-5.97-.491l-.191.191-.382.3a4.005,4.005,0,0,1-5.316-.3l-.191-.191-.3-.382a4.005,4.005,0,0,1,.3-5.316,3.768,3.768,0,0,0,1.254-2.89v-.3a3.515,3.515,0,0,0-1.145-2.617c0-.109-.109-.109-.109-.191l-.3-.382a4.005,4.005,0,0,1,.3-5.316l.109-.109.109-.109a3.8,3.8,0,0,1,5.588,0l.109.109.109.109.191.191c.109,0,.109.109.191.109s.109.109.191.109.109.109.191.109.109.109.191.109.109.109.191.109.109.109.191.109.109,0,.191.109c.109,0,.109,0,.191.109H36.9a.348.348,0,0,0,.3-.109h.191c.109,0,.191-.109.3-.109H37.8c.109,0,.191-.109.382-.191a5.022,5.022,0,0,0,1.063-.763l.109-.109a3.8,3.8,0,0,1,5.588,0,3.973,3.973,0,0,0,6.188-.191,4.757,4.757,0,0,0-.109-5.343" transform="translate(-20.3 -263.445)" fill="#fff"/>
      <path id="Path_400" data-name="Path 400" d="M182.422,276.9a5.449,5.449,0,0,0-1.745-1.254,4.456,4.456,0,0,0-2.126-.491,4.792,4.792,0,0,0-2.126.491,3.748,3.748,0,0,0-1.445,1.254,5,5,0,0,0-.872,1.745,7.537,7.537,0,0,0-.3,2.017,5.294,5.294,0,0,0,.382,2.017,4.626,4.626,0,0,0,.954,1.636,4.128,4.128,0,0,0,1.554,1.145,4.308,4.308,0,0,0,2.017.382,4.456,4.456,0,0,0,2.126-.491,5.364,5.364,0,0,0,1.636-1.254l2.017,2.126a6.535,6.535,0,0,1-2.617,1.826,8.519,8.519,0,0,1-3.189.572,9.062,9.062,0,0,1-3.271-.572,7.267,7.267,0,0,1-4.144-4.143,9.633,9.633,0,0,1,0-6.542,9.374,9.374,0,0,1,1.636-2.617,7.543,7.543,0,0,1,2.508-1.636,9.062,9.062,0,0,1,3.271-.572,8.724,8.724,0,0,1,3.189.572,7.4,7.4,0,0,1,2.7,1.826l-2.154,1.963m6.542,3.571a5.2,5.2,0,0,0,.382,2.126,5.135,5.135,0,0,0,.954,1.745,3.258,3.258,0,0,0,1.554,1.063,4.782,4.782,0,0,0,2.126.382,5.554,5.554,0,0,0,2.126-.382,7.414,7.414,0,0,0,1.554-1.063,5.135,5.135,0,0,0,.954-1.745,7.726,7.726,0,0,0,.382-2.126,5.2,5.2,0,0,0-.382-2.126,5.134,5.134,0,0,0-.954-1.745,3.258,3.258,0,0,0-1.554-1.063,4.782,4.782,0,0,0-2.126-.382,5.554,5.554,0,0,0-2.126.382A7.413,7.413,0,0,0,190.3,276.6a5.134,5.134,0,0,0-.954,1.745A7.727,7.727,0,0,0,188.964,280.474Zm-3.08,0a8.724,8.724,0,0,1,.572-3.189,7.728,7.728,0,0,1,1.745-2.617,6.9,6.9,0,0,1,2.617-1.745,8.537,8.537,0,0,1,3.189-.682,6.917,6.917,0,0,1,3.189.682,7.729,7.729,0,0,1,2.617,1.745,9.546,9.546,0,0,1,1.745,2.617,8.519,8.519,0,0,1,.572,3.189,8.724,8.724,0,0,1-.572,3.189,7.729,7.729,0,0,1-1.745,2.617,8.537,8.537,0,0,1-5.806,2.426,6.993,6.993,0,0,1-3.189-.682,7.729,7.729,0,0,1-2.617-1.745,8.457,8.457,0,0,1-1.745-2.617A11.824,11.824,0,0,1,185.884,280.474ZM205.1,288.3h2.89V272.868H205.1Zm-.681-21.045a2.437,2.437,0,0,1,.572-1.554,2.074,2.074,0,0,1,1.445-.681,1.718,1.718,0,0,1,1.445.681,2.187,2.187,0,0,1,.572,1.554,2.383,2.383,0,0,1-.572,1.554,2.074,2.074,0,0,1-1.445.681,1.718,1.718,0,0,1-1.445-.681A2.282,2.282,0,0,1,204.421,267.253Zm7.606,5.588h2.917v2.4h.109a3.77,3.77,0,0,1,1.935-2.017,6.419,6.419,0,0,1,3.189-.763,5.554,5.554,0,0,1,2.126.382,3.982,3.982,0,0,1,1.745,1.063,6.726,6.726,0,0,1,1.254,1.826,7.228,7.228,0,0,1,.491,2.7v9.95h-2.944V279.22a5.12,5.12,0,0,0-.3-1.826,4.266,4.266,0,0,0-.763-1.254,2.435,2.435,0,0,0-1.145-.681,5.138,5.138,0,0,0-1.363-.191,4.588,4.588,0,0,0-1.636.3,3.46,3.46,0,0,0-1.363.954,3.742,3.742,0,0,0-.872,1.636,8.53,8.53,0,0,0-.3,2.317v8.014h-2.89v-15.62m24.234,13a4.836,4.836,0,0,0,3.762-1.527,5.135,5.135,0,0,0,.954-1.745,7.779,7.779,0,0,0,.382-2.208,5.879,5.879,0,0,0-.382-2.208,5.134,5.134,0,0,0-.954-1.745,4.665,4.665,0,0,0-1.636-1.145,5.083,5.083,0,0,0-2.126-.382,4.836,4.836,0,0,0-3.762,1.527,5.134,5.134,0,0,0-.954,1.745,7.779,7.779,0,0,0-.382,2.208,5.88,5.88,0,0,0,.382,2.208,5.134,5.134,0,0,0,.954,1.745,3.848,3.848,0,0,0,1.636,1.145A7.045,7.045,0,0,0,236.451,285.871Zm8.014,2.317h-2.89V285.98h-.109a5.752,5.752,0,0,1-2.317,1.935,6.7,6.7,0,0,1-3.08.682,9.062,9.062,0,0,1-3.271-.572,6.424,6.424,0,0,1-2.508-1.745,7.107,7.107,0,0,1-1.554-2.617,8.519,8.519,0,0,1-.572-3.189,9.387,9.387,0,0,1,.572-3.271,9.108,9.108,0,0,1,1.554-2.617,6.722,6.722,0,0,1,2.508-1.745,8.654,8.654,0,0,1,3.271-.572,6.7,6.7,0,0,1,3.08.681,5.329,5.329,0,0,1,2.208,1.936h.109V263.3h2.89v24.888Zm14.748-8.969a5.577,5.577,0,0,0-.3-1.826,3.67,3.67,0,0,0-.872-1.445,6.1,6.1,0,0,0-1.363-.954,5.672,5.672,0,0,0-1.935-.382,4.548,4.548,0,0,0-1.935.382,5.838,5.838,0,0,0-1.554,1.063,3.828,3.828,0,0,0-.954,1.445,5.16,5.16,0,0,0-.382,1.554h9.268Zm-9.241,2.4a3.81,3.81,0,0,0,.491,1.826,4.637,4.637,0,0,0,1.145,1.445,5.575,5.575,0,0,0,1.636.872,6.815,6.815,0,0,0,1.936.3,4,4,0,0,0,2.4-.681,6.814,6.814,0,0,0,1.826-1.636l2.208,1.745a8.189,8.189,0,0,1-6.842,3.189,8.654,8.654,0,0,1-3.271-.572,6.424,6.424,0,0,1-2.508-1.745,6.5,6.5,0,0,1-1.554-2.617,8.519,8.519,0,0,1-.572-3.189,8.725,8.725,0,0,1,.572-3.189,9.374,9.374,0,0,1,1.636-2.617A8.269,8.269,0,0,1,251.58,273a8.52,8.52,0,0,1,3.189-.572,7.48,7.48,0,0,1,3.462.681,6.521,6.521,0,0,1,2.317,1.826,8.534,8.534,0,0,1,1.363,2.617,9.841,9.841,0,0,1,.382,3v1.063Zm23.716-4.907a6.8,6.8,0,0,0-1.254-1.063,3.573,3.573,0,0,0-1.826-.491,3.81,3.81,0,0,0-1.826.491,1.386,1.386,0,0,0-.763,1.254,1.214,1.214,0,0,0,.491,1.063,3.936,3.936,0,0,0,1.063.681,5.51,5.51,0,0,0,1.254.382,6.137,6.137,0,0,0,1.145.191,10.907,10.907,0,0,1,1.745.572,3.671,3.671,0,0,1,1.445.872,5.444,5.444,0,0,1,.954,1.254,4.79,4.79,0,0,1,.382,1.826,3.969,3.969,0,0,1-.572,2.208,6.023,6.023,0,0,1-1.445,1.554,5.882,5.882,0,0,1-2.017.872,9.5,9.5,0,0,1-2.208.3,9.349,9.349,0,0,1-3.38-.572,6.088,6.088,0,0,1-2.617-2.126l2.208-1.826a8.693,8.693,0,0,0,1.554,1.254,3.75,3.75,0,0,0,2.126.572,4.082,4.082,0,0,0,1.145-.109,3.037,3.037,0,0,0,.954-.382,3.76,3.76,0,0,0,.681-.572,1.6,1.6,0,0,0,.3-.872,1.55,1.55,0,0,0-.382-1.063,3.391,3.391,0,0,0-.954-.681,4.711,4.711,0,0,0-1.145-.382l-1.145-.3c-.572-.191-1.254-.3-1.745-.491a5.523,5.523,0,0,1-1.445-.763,4.875,4.875,0,0,1-1.063-1.254,3.543,3.543,0,0,1-.382-1.826,4.792,4.792,0,0,1,.491-2.126,3.83,3.83,0,0,1,1.363-1.445,6.272,6.272,0,0,1,1.826-.872,8.169,8.169,0,0,1,2.126-.3,8.034,8.034,0,0,1,3,.572,5.007,5.007,0,0,1,2.317,1.935l-2.4,1.663m5.616-13.03h2.89V279.3l6.57-6.57h3.953l-7.033,6.951,7.715,8.287h-4.143l-7.033-7.905v7.905h-2.89V263.682" transform="translate(-129.701 -263.3)" fill="#fff"/>
    </g>
    <g id="WIRED" transform="translate(46.009 1.5)">
      <path id="Path_16236" data-name="Path 16236" d="M409,387h31.314v32H409Zm2.3,5.034c1.4,6.478,2.654,13.035,3.983,19.551.234.781.078,1.8.859,2.341a18.347,18.347,0,0,0,4.139.078c.742.039.937-.859,1.054-1.444.937-4.644,1.952-9.249,2.889-13.893a4.661,4.661,0,0,1,.391-1.249c1.171,5,2.147,9.99,3.2,14.985.156.546.2,1.17.7,1.522a17.239,17.239,0,0,0,4.491,0c.546-.312.546-.975.7-1.522,1.367-6.79,2.655-13.62,4.1-20.41h-3.944c-1.054,5.931-1.874,11.864-3.045,17.756-1.288-5-2.187-10.107-3.319-15.18-.273-.859-.156-2.107-1.093-2.576a25.923,25.923,0,0,0-3.475,0c-.664.039-.82.82-.937,1.327-.9,5.073-1.991,10.068-3.007,15.063-.117.469-.273.9-.43,1.366-1.054-5.893-2.03-11.825-2.967-17.717Z" transform="translate(-5950.5 -5311.5)" fill="#fff"/>
      <path id="Path_16237" data-name="Path 16237" d="M490.892,387h31.315v32H490.892Zm7.067,5.034v21.932h4.334V405.38h7.067a1.682,1.682,0,0,1,1.874,1.483c.117,2.38.312,4.722.469,7.1h4.139c-.39-2.693.078-5.464-.664-8.078-.39-1.365-1.913-1.678-3.084-2.029.9-.469,2.03-.507,2.655-1.366a6.494,6.494,0,0,0,1.016-4.175c0-1.678.039-3.512-1.055-4.917-.859-1.171-2.459-1.326-3.787-1.326C506.55,392.034,502.254,392.034,497.959,392.034Z" transform="translate(-5969.998 -5311.5)" fill="#fff"/>
      <path id="Path_16238" data-name="Path 16238" d="M572.888,387h31.7v32h-31.7Zm7.067,5.034v21.932h10.933c2.265-.04,4.881-.469,6.209-2.459,1.6-2.536,1.327-5.62,1.64-8.469-.273-2.849-.039-5.97-1.64-8.507-1.25-1.873-3.671-2.38-5.779-2.458C587.53,392,583.742,392.034,579.955,392.034Z" transform="translate(-5989.521 -5311.5)" fill="#fff"/>
      <path id="Path_16239" data-name="Path 16239" d="M460.545,393.3h15.15v3.941h-5.349v14.517h5.349V415.7h-15.15c-.039-1.326-.039-2.615,0-3.941h5.349V397.241h-5.349Z" transform="translate(-5962.766 -5313)" fill="#fff"/>
      <path id="Path_16240" data-name="Path 16240" d="M539.316,393.291c6.169-.039,12.377-.039,18.546,0v7.3h-4.021v-3.356h-7.262v5.035h5.857v3.746h-5.857v5.736c2.5-.039,4.958,0,7.457,0v-3.825h4.1v7.766h-18.82c-.039-1.326,0-2.615,0-3.941h2.968V397.232h-2.968Z" transform="translate(-5981.523 -5312.991)" fill="#fff"/>
      <path id="Path_16241" data-name="Path 16241" d="M505.845,398.315c2.772.039,5.583-.078,8.356.039,1.093.741.859,2.3.9,3.434-.039,1.054-.078,2.731-1.483,2.81-2.577.117-5.193,0-7.809.039C505.845,402.568,505.845,400.422,505.845,398.315Z" transform="translate(-5973.549 -5314.19)" fill="#fff"/>
      <path id="Path_16242" data-name="Path 16242" d="M587.852,398.32h7.067a2.594,2.594,0,0,1,2.578,1.56c.741,2.107.429,4.41.507,6.6-.078,1.756.117,3.591-.625,5.23a3,3,0,0,1-2.85,1.326h-6.677Z" transform="translate(-5993.084 -5314.195)" fill="#fff"/>
    </g>
    <g id="Bloomberg" transform="translate(88.003 1.5)">
      <path id="Path_16226" data-name="Path 16226" d="M563.933,111.868h6.25a2.5,2.5,0,0,0,2.613,1.576c2.093,0,2.814-1.3,2.814-3.221v-1.369h-.139a5.555,5.555,0,0,1-4.428,2.087c-3.985,0-7.449-2.945-7.449-8.7,0-5.275,2.848-9.388,7.144-9.388a5.407,5.407,0,0,1,4.983,2.572h.1V93.4h6.181v15.962a8.67,8.67,0,0,1-2.578,6.616A9.607,9.607,0,0,1,572.9,118C567.986,118,564.557,115.974,563.933,111.868Zm11.954-9.941c0-2.295-1.095-4.147-2.987-4.147-1.823,0-2.987,1.645-2.987,4.147,0,2.468,1.171,4.245,2.987,4.245C574.785,106.178,575.887,104.36,575.887,101.927Zm-19.2-5.378h.1c1.338-2.572,3.091-3.526,5.322-3.526a2.512,2.512,0,0,1,1.068.173v5.654h-.139c-3.811-.684-6.042,1.134-6.042,5.275v7.708H550.51V93.4h6.181ZM409,86h12.709a8.608,8.608,0,0,1,5.565,1.645,6.339,6.339,0,0,1,2.266,5.1,4.938,4.938,0,0,1-3.056,4.97v.1a6.227,6.227,0,0,1,4.227,6.2,7.48,7.48,0,0,1-2.814,6.235,9.826,9.826,0,0,1-5.939,1.576H409Zm12.092,20.109a2.641,2.641,0,1,0-.034-5.281h-5.017V106.1h5.051Zm-.658-10a2.231,2.231,0,1,0-.034-4.452h-4.359v4.452Z" transform="translate(-6207.5 -5010.5)" fill="#fff"/>
      <path id="Path_16227" data-name="Path 16227" d="M437.561,86h6.659v25.834h-6.659Zm7.934,16.646c0-5.821,3.777-9.761,9.618-9.761s9.549,3.94,9.549,9.761c0,5.862-3.707,9.761-9.549,9.761S445.495,108.508,445.495,102.646Zm12.57,0c0-3.221-1.032-5.24-3.021-5.24s-2.952,2.019-2.952,5.24c0,3.256.964,5.274,2.952,5.274S458.065,105.9,458.065,102.646Zm7.352,0c0-5.821,3.776-9.761,9.618-9.761s9.549,3.94,9.549,9.761c0,5.862-3.707,9.761-9.549,9.761S465.418,108.508,465.418,102.646Zm12.57,0c0-3.221-1.032-5.24-3.021-5.24s-2.952,2.019-2.952,5.24c0,3.256.964,5.274,2.952,5.274S477.988,105.9,477.988,102.646Zm7.865-9.243h6.181v2.772h.1a5.918,5.918,0,0,1,5.564-3.325,5.161,5.161,0,0,1,4.983,3.187h.1a6.208,6.208,0,0,1,5.738-3.187c4.3,0,6.146,3.152,6.146,7.4v11.579H508.18v-10.41c0-1.888-.582-3.118-2.231-3.118-1.615,0-2.439,1.507-2.439,3.5v10.038h-6.5V101.416c0-1.888-.582-3.118-2.231-3.118-1.615,0-2.439,1.507-2.439,3.5v10.038h-6.487ZM522.6,109.435h-.069v2.4h-6.182V86h6.493v9.319h.1a6.137,6.137,0,0,1,5.252-2.468c4.636,0,7.318,4.182,7.318,9.727,0,6.27-2.918,9.864-7.727,9.864A5.828,5.828,0,0,1,522.6,109.435Zm6.32-6.92c0-2.979-1.095-4.9-3.056-4.9-1.989,0-3.264,1.922-3.264,4.9,0,2.945,1.269,4.9,3.264,4.9S528.921,105.494,528.921,102.515Zm7.421.069c0-5.758,3.812-9.761,9.341-9.761a9.008,9.008,0,0,1,6.493,2.4c2.128,2.053,3.091,5.275,3.022,9.077H542.8c.277,2.295,1.372,3.463,3.333,3.463a2.49,2.49,0,0,0,2.543-1.749h6.25c-1.095,4.21-4.359,6.339-8.994,6.339C540.188,112.345,536.342,108.474,536.342,102.584Zm6.459-1.921h5.9c-.1-2.226-1.338-3.394-2.883-3.394C544.034,97.268,543.036,98.54,542.8,100.662Z" transform="translate(-6213.186 -5010.5)" fill="#fff"/>
    </g>
  </g>
</svg>
