<svg xmlns="http://www.w3.org/2000/svg" width="84" height="84" viewBox="0 0 84 84"><g transform="translate(-968 -5366)"><circle cx="42" cy="42" r="42" transform="translate(968 5366)" fill="#6366f1"/><path d="M73.564,1012.651h7.768m-3.884-3.884v7.768m13.593-1.942h.019m5.806-3.884h.019M82.2,1001h6.024c5.1,0,7.646,0,9.646.971a9.759,9.759,0,0,1,4.2,3.9c1.106,1.922,1.288,4.466,1.651,9.554l.478,6.68a5.666,5.666,0,0,1-10,4.039l-.729-.874a11.743,11.743,0,0,0-1.379-1.515,5.8,5.8,0,0,0-2.788-1.32,13.748,13.748,0,0,0-2.053-.078H83.182a13.747,13.747,0,0,0-2.053.078,5.8,5.8,0,0,0-2.788,1.32,11.731,11.731,0,0,0-1.379,1.515l-.729.874a5.666,5.666,0,0,1-10-4.039l.478-6.68c.363-5.088.545-7.632,1.651-9.554a9.758,9.758,0,0,1,4.2-3.9C74.558,1001,77.107,1001,82.2,1001Z" transform="translate(924.784 4393.407)" fill="none" stroke="#fff" stroke-linecap="round" stroke-linejoin="round" stroke-width="3"/></g></svg>