<svg xmlns="http://www.w3.org/2000/svg" width="84" height="84" viewBox="0 0 84 84"><g transform="translate(-136 -5366)"><circle cx="42" cy="42" r="42" transform="translate(136 5366)" fill="#6366f1"/><path d="M615.7,737.99A11.358,11.358,0,0,0,619,746.015a2.777,2.777,0,0,1,.353.393.886.886,0,0,1,.112.274,2.158,2.158,0,0,1,.026.48v4.5a2.376,2.376,0,0,0,.1,1,.955.955,0,0,0,.416.416,2.38,2.38,0,0,0,1,.1h3.608a2.38,2.38,0,0,0,1-.1.952.952,0,0,0,.414-.416,2.337,2.337,0,0,0,.1-1v-.76a2.379,2.379,0,0,1,.1-1,.955.955,0,0,1,.416-.416,2.379,2.379,0,0,1,1-.1h2.659a2.38,2.38,0,0,1,1,.1.953.953,0,0,1,.414.416,2.34,2.34,0,0,1,.1,1v.76a2.379,2.379,0,0,0,.1,1,.956.956,0,0,0,.416.416,2.38,2.38,0,0,0,1,.1h3.608a2.38,2.38,0,0,0,1-.1.955.955,0,0,0,.416-.416,2.376,2.376,0,0,0,.1-1v-1.854a2.352,2.352,0,0,1,.055-.729.864.864,0,0,1,.23-.361,2.825,2.825,0,0,1,.71-.389,11.44,11.44,0,0,0,4.609-3.9,2.709,2.709,0,0,1,.412-.53.89.89,0,0,1,.325-.171,2.274,2.274,0,0,1,.608-.04h1.027a2.38,2.38,0,0,0,1-.1.957.957,0,0,0,.416-.416,2.379,2.379,0,0,0,.1-1v-6.483a2.342,2.342,0,0,0-.095-.955.943.943,0,0,0-.443-.443,2.342,2.342,0,0,0-.955-.095,2.4,2.4,0,0,1-.7-.049.878.878,0,0,1-.385-.247,2.751,2.751,0,0,1-.37-.682,11.4,11.4,0,0,0-2.26-3.249,2.645,2.645,0,0,1-.353-.393.884.884,0,0,1-.112-.273,2.158,2.158,0,0,1-.026-.48v-2.106a2.617,2.617,0,0,0-.142-1.255.954.954,0,0,0-.549-.414,2.608,2.608,0,0,0-1.246.207l-4.5,1.287c-.078.023-.116.032-.154.042s-.07.011-.1.013-.08,0-.159,0h-.815M615.7,737.99a11.393,11.393,0,0,1,6.084-10.084M615.7,737.99h-1.9a3.8,3.8,0,0,1-1.9-7.087m22.788-5.256A6.646,6.646,0,1,1,628.04,719,6.647,6.647,0,0,1,634.687,725.646Z" transform="translate(-450.99 4671.909)" fill="none" stroke="#fff" stroke-linecap="round" stroke-linejoin="round" stroke-width="3"/></g></svg>