<svg id="Polygon_MATIC_" data-name="Polygon (MATIC)" xmlns="http://www.w3.org/2000/svg" width="120" height="120" viewBox="0 0 120 120">
  <g id="Polygon_MATIC_2" data-name="Polygon (MATIC)">
    <circle id="Polygon_MATIC_3" data-name="Polygon (MATIC)" cx="60" cy="60" r="60" fill="#edf0f4"/>
    <g id="Polygon_MATIC_4" data-name="Polygon (MATIC)" transform="translate(25 29)">
      <path id="Polygon_MATIC_5" data-name="Polygon (MATIC)" d="M53,18.95a4.63,4.63,0,0,0-4.386,0L38.381,25.021l-6.945,3.864L21.384,34.955a4.63,4.63,0,0,1-4.386,0L9.138,30.172a4.49,4.49,0,0,1-2.193-3.864v-9.2a4.544,4.544,0,0,1,2.193-3.864L17,8.647a4.63,4.63,0,0,1,4.386,0l7.859,4.783a4.49,4.49,0,0,1,2.193,3.864v6.071l6.945-4.047V13.062A4.544,4.544,0,0,0,36.188,9.2L21.567.552a4.63,4.63,0,0,0-4.386,0L2.193,9.383A4.051,4.051,0,0,0,0,13.062V30.356A4.544,4.544,0,0,0,2.193,34.22L17,42.866a4.63,4.63,0,0,0,4.386,0l10.052-5.887,6.945-4.047,10.052-5.887a4.63,4.63,0,0,1,4.386,0l7.859,4.6a4.49,4.49,0,0,1,2.193,3.864v9.2a4.544,4.544,0,0,1-2.193,3.864L53,53.169a4.63,4.63,0,0,1-4.386,0l-7.859-4.6a4.49,4.49,0,0,1-2.193-3.864V38.819l-6.945,4.047v6.071A4.544,4.544,0,0,0,33.812,52.8l14.8,8.647a4.63,4.63,0,0,0,4.386,0l14.8-8.647A4.49,4.49,0,0,0,70,48.938V31.46A4.544,4.544,0,0,0,67.807,27.6Z" fill="#8247e5"/>
    </g>
  </g>
</svg>
