<svg xmlns="http://www.w3.org/2000/svg" width="52" height="52" viewBox="0 0 52 52"><g transform="translate(-24 -24)"><circle cx="26" cy="26" r="26" transform="translate(24 24)" fill="#6366f1" opacity="0.2"/><circle cx="19" cy="19" r="19" transform="translate(31 31)" fill="#6366f1"/><path d="M626,527.837a9.117,9.117,0,0,1,3.615,3.373,1.679,1.679,0,0,1,.3.637,1.084,1.084,0,0,1-.6,1.073,2.138,2.138,0,0,1-.82.08m-4.5-9.468a4.5,4.5,0,0,0,0-8.064m-2,4.032a4.5,4.5,0,1,1-4.5-4.5A4.5,4.5,0,0,1,622,519.5Zm-11.441,11.438a8.086,8.086,0,0,1,13.882,0c.349.525.524.787.5,1.122a1.113,1.113,0,0,1-.4.738c-.268.2-.636.2-1.372.2H611.822c-.736,0-1.1,0-1.372-.2a1.113,1.113,0,0,1-.4-.738C610.035,531.725,610.21,531.463,610.559,530.938Z" transform="translate(-569.99 -474)" fill="none" stroke="#fff" stroke-linecap="round" stroke-linejoin="round" stroke-width="2"/></g></svg>