<svg xmlns="http://www.w3.org/2000/svg" width="52" height="52" viewBox="0 0 52 52"><g transform="translate(-24 -24)"><circle cx="26" cy="26" r="26" transform="translate(24 24)" fill="#6366f1" opacity="0.2"/><circle cx="19" cy="19" r="19" transform="translate(31 31)" fill="#6366f1"/><path d="M883,218h9m-1-15.748a8,8,0,0,1,5,15.166M885.5,209h4a5.071,5.071,0,0,1,.89.038,2,2,0,0,1,1.572,1.572,10.435,10.435,0,0,1,0,1.78,2,2,0,0,1-1.572,1.572,5.071,5.071,0,0,1-.89.038h-4a5.071,5.071,0,0,1-.89-.038,2,2,0,0,1-1.572-1.572,10.435,10.435,0,0,1,0-1.78,2,2,0,0,1,1.572-1.572A5.071,5.071,0,0,1,885.5,209Zm-1.5-7.5V209h7v-7.5a3.5,3.5,0,0,0-7,0Z" transform="translate(-842 -158)" fill="none" stroke="#fff" stroke-linecap="round" stroke-linejoin="round" stroke-width="2"/></g></svg>