<svg xmlns="http://www.w3.org/2000/svg" width="156.571" height="32" viewBox="0 0 156.571 32">
  <g id="WIRED" transform="translate(5541.5 4924.5)">
    <path id="Path_16236" data-name="Path 16236" d="M409,387h31.314v32H409Zm2.3,5.034c1.4,6.478,2.654,13.035,3.983,19.551.234.781.078,1.8.859,2.341a18.347,18.347,0,0,0,4.139.078c.742.039.937-.859,1.054-1.444.937-4.644,1.952-9.249,2.889-13.893a4.661,4.661,0,0,1,.391-1.249c1.171,5,2.147,9.99,3.2,14.985.156.546.2,1.17.7,1.522a17.239,17.239,0,0,0,4.491,0c.546-.312.546-.975.7-1.522,1.367-6.79,2.655-13.62,4.1-20.41h-3.944c-1.054,5.931-1.874,11.864-3.045,17.756-1.288-5-2.187-10.107-3.319-15.18-.273-.859-.156-2.107-1.093-2.576a25.923,25.923,0,0,0-3.475,0c-.664.039-.82.82-.937,1.327-.9,5.073-1.991,10.068-3.007,15.063-.117.469-.273.9-.43,1.366-1.054-5.893-2.03-11.825-2.967-17.717Z" transform="translate(-5950.5 -5311.5)" fill="#fff"/>
    <path id="Path_16237" data-name="Path 16237" d="M490.892,387h31.315v32H490.892Zm7.067,5.034v21.932h4.334V405.38h7.067a1.682,1.682,0,0,1,1.874,1.483c.117,2.38.312,4.722.469,7.1h4.139c-.39-2.693.078-5.464-.664-8.078-.39-1.365-1.913-1.678-3.084-2.029.9-.469,2.03-.507,2.655-1.366a6.494,6.494,0,0,0,1.016-4.175c0-1.678.039-3.512-1.055-4.917-.859-1.171-2.459-1.326-3.787-1.326C506.55,392.034,502.254,392.034,497.959,392.034Z" transform="translate(-5969.998 -5311.5)" fill="#fff"/>
    <path id="Path_16238" data-name="Path 16238" d="M572.888,387h31.7v32h-31.7Zm7.067,5.034v21.932h10.933c2.265-.04,4.881-.469,6.209-2.459,1.6-2.536,1.327-5.62,1.64-8.469-.273-2.849-.039-5.97-1.64-8.507-1.25-1.873-3.671-2.38-5.779-2.458C587.53,392,583.742,392.034,579.955,392.034Z" transform="translate(-5989.521 -5311.5)" fill="#fff"/>
    <path id="Path_16239" data-name="Path 16239" d="M460.545,393.3h15.15v3.941h-5.349v14.517h5.349V415.7h-15.15c-.039-1.326-.039-2.615,0-3.941h5.349V397.241h-5.349Z" transform="translate(-5962.766 -5313)" fill="#fff"/>
    <path id="Path_16240" data-name="Path 16240" d="M539.316,393.291c6.169-.039,12.377-.039,18.546,0v7.3h-4.021v-3.356h-7.262v5.035h5.857v3.746h-5.857v5.736c2.5-.039,4.958,0,7.457,0v-3.825h4.1v7.766h-18.82c-.039-1.326,0-2.615,0-3.941h2.968V397.232h-2.968Z" transform="translate(-5981.523 -5312.991)" fill="#fff"/>
    <path id="Path_16241" data-name="Path 16241" d="M505.845,398.315c2.772.039,5.583-.078,8.356.039,1.093.741.859,2.3.9,3.434-.039,1.054-.078,2.731-1.483,2.81-2.577.117-5.193,0-7.809.039C505.845,402.568,505.845,400.422,505.845,398.315Z" transform="translate(-5973.549 -5314.19)" fill="#fff"/>
    <path id="Path_16242" data-name="Path 16242" d="M587.852,398.32h7.067a2.594,2.594,0,0,1,2.578,1.56c.741,2.107.429,4.41.507,6.6-.078,1.756.117,3.591-.625,5.23a3,3,0,0,1-2.85,1.326h-6.677Z" transform="translate(-5993.084 -5314.195)" fill="#fff"/>
  </g>
</svg>
