<svg id="Yahoo_Finance" data-name="Yahoo Finance" xmlns="http://www.w3.org/2000/svg" width="85" height="32" viewBox="0 0 85 32">
  <g id="Finance" transform="translate(31.054 20.911)">
    <path id="path32" d="M-160.8,27.572a.937.937,0,0,1,1.053-1,1.685,1.685,0,0,1,.772.176V24.536a2.873,2.873,0,0,0-1.236-.249,2.929,2.929,0,0,0-3.146,3.227V27.7h-.941v2.156h.941v5.178h2.556V29.861h1.727V27.7H-160.8Z" transform="translate(164.293 -24.155)" fill="#fff"/>
    <path id="path34" d="M-142.6,34.76V27.425h-2.57V34.76Zm.154-9.4a1.471,1.471,0,0,0-1.446-1.482,1.468,1.468,0,0,0-1.432,1.482,1.468,1.468,0,0,0,1.432,1.482A1.471,1.471,0,0,0-142.442,25.357Z" transform="translate(151.416 -23.876)" fill="#fff"/>
    <path id="path36" d="M-131.006,37.924c0-.763.365-1.188.927-1.188s.9.411.9,1.159v3.931h2.57V37.161c0-1.775-.927-2.875-2.444-2.875a2.12,2.12,0,0,0-1.952,1.1v-.895h-2.57v7.334h2.57Z" transform="translate(143.444 -30.941)" fill="#fff"/>
    <path id="path38" d="M-106.177,34.468a3.671,3.671,0,0,0-3.487,3.843,3.619,3.619,0,0,0,3.457,3.843,2.346,2.346,0,0,0,2.022-.895v.7h2.476V34.645h-2.476v.66A2.534,2.534,0,0,0-106.177,34.468Zm.527,2.362a1.449,1.449,0,0,1,1.494,1.481,1.466,1.466,0,0,1-1.494,1.511,1.508,1.508,0,0,1-1.494-1.481A1.443,1.443,0,0,1-105.65,36.83Z" transform="translate(127.214 -31.065)" fill="#fff"/>
    <path id="path40" d="M-78.549,37.924c0-.763.365-1.188.927-1.188s.9.411.9,1.159v3.931h2.57V37.161c0-1.775-.927-2.875-2.444-2.875a2.12,2.12,0,0,0-1.952,1.1v-.895h-2.57v7.334h2.57Z" transform="translate(107.839 -30.941)" fill="#fff"/>
    <path id="path42" d="M-57.076,38.158a3.643,3.643,0,0,0,3.75,3.872,3.569,3.569,0,0,0,1.685-.411V39.185a2.084,2.084,0,0,1-1.278.44,1.45,1.45,0,0,1-1.559-1.467,1.45,1.45,0,0,1,1.559-1.467,2.21,2.21,0,0,1,1.278.411V34.667a3.758,3.758,0,0,0-1.643-.381,3.7,3.7,0,0,0-3.792,3.872Z" transform="translate(91.521 -30.942)" fill="#fff"/>
    <path id="path44" d="M-33.26,39.244a1.2,1.2,0,0,1-1.166.645,1.219,1.219,0,0,1-1.292-1.056h4.859a5,5,0,0,0,.028-.543c0-2.42-1.475-4-3.665-4a3.723,3.723,0,0,0-3.736,3.872,3.669,3.669,0,0,0,3.82,3.872,3.436,3.436,0,0,0,3.356-1.98ZM-35.7,37.293a1.118,1.118,0,0,1,1.194-.953,1.1,1.1,0,0,1,1.194.953Z" transform="translate(78.73 -30.941)" fill="#fff"/>
  </g>
  <g id="Yahoo">
    <path id="path1139" d="M-260.955-23.352h5.057l2.945,7.533,2.983-7.533h4.924l-7.414,17.834h-4.955l2.029-4.726Z" transform="translate(260.955 29.09)" fill="#fff"/>
    <path id="path1141" d="M-208.573-24.285c-3.8,0-6.2,3.408-6.2,6.8,0,3.819,2.633,6.846,6.129,6.846a4.156,4.156,0,0,0,3.591-1.589v1.238h4.411v-13h-4.411V-22.8a4.433,4.433,0,0,0-3.519-1.481Zm.938,4.176a2.592,2.592,0,0,1,2.658,2.639,2.6,2.6,0,0,1-2.658,2.671,2.668,2.668,0,0,1-2.664-2.613A2.574,2.574,0,0,1-207.635-20.109Z" transform="translate(229.611 29.724)" fill="#fff"/>
    <path id="path1145" d="M-166.06-22.479V-41.214h4.613v6.965a4.271,4.271,0,0,1,3.391-1.525c2.807,0,4.452,2.092,4.452,5.08v8.214h-4.579v-7.089c0-1.011-.482-1.989-1.573-1.989a1.8,1.8,0,0,0-1.69,1.989v7.089Z" transform="translate(196.546 41.214)" fill="#fff"/>
    <path id="path1147" d="M-117.472-24.28a6.723,6.723,0,0,0-6.942,6.854,6.714,6.714,0,0,0,6.959,6.792,6.681,6.681,0,0,0,6.945-6.724,6.7,6.7,0,0,0-6.962-6.921Zm.042,4.213a2.618,2.618,0,0,1,2.6,2.645,2.659,2.659,0,0,1-2.6,2.6,2.575,2.575,0,0,1-2.582-2.613,2.508,2.508,0,0,1,2.582-2.633Z" transform="translate(168.279 29.72)" fill="#fff"/>
    <path id="path1153" d="M-71.88-24.28a6.723,6.723,0,0,0-6.942,6.854,6.714,6.714,0,0,0,6.959,6.792,6.681,6.681,0,0,0,6.945-6.724A6.7,6.7,0,0,0-71.88-24.28Zm.042,4.213a2.618,2.618,0,0,1,2.6,2.645,2.659,2.659,0,0,1-2.6,2.6,2.575,2.575,0,0,1-2.582-2.613,2.508,2.508,0,0,1,2.582-2.633Z" transform="translate(137.334 29.72)" fill="#fff"/>
    <ellipse id="path1155" cx="3.063" cy="3.063" rx="3.063" ry="3.063" transform="translate(72.993 12.883)" fill="#fff"/>
    <path id="path1157" d="M-23.195-29.456H-28.71l4.895-11.758h5.494Z" transform="translate(103.321 41.214)" fill="#fff"/>
  </g>
</svg>
